
<svg width="142px" height="48px" viewBox="0 0 142 48" version="1.1" xmlns="http://www.w3.org/2000/svg" xmlns:xlink="http://www.w3.org/1999/xlink">
    <!-- Generator: Sketch 50.2 (55047) - http://www.bohemiancoding.com/sketch -->
    <desc>Created with Sketch.</desc>
    <defs>
        <linearGradient x1="45.180583%" y1="99.3901467%" x2="45.180583%" y2="3.63673081%" id="linearGradient-1">
            <stop stop-color="#FF9E9E" offset="0%"></stop>
            <stop stop-color="#FFA8E1" offset="100%"></stop>
        </linearGradient>
    </defs>
    <g id="Homepage" stroke="none" stroke-width="1" fill="none" fill-rule="evenodd">
        <g id="cool" transform="translate(-101.000000, -24.000000)" fill="url(#linearGradient-1)">
            <g id="Group" transform="translate(101.000000, 24.000000)">
                <path d="M0.031877551,19.3432836 L0.031877551,0.644776119 L5.9002449,0.644776119 C9.52559184,0.644776119 12.3163265,1.57325373 12.3163265,5.46770149 C12.3163265,7.09253731 11.5338776,8.45946269 10.2819592,9.31056716 C11.8468571,10.0069254 12.9683673,11.2706866 12.9683673,13.5402985 C12.9683673,17.7184478 10.2297959,19.3432836 6.21322449,19.3432836 L0.031877551,19.3432836 Z M3.94412245,8.33050746 L5.84808163,8.33050746 C7.43906122,8.33050746 8.2215102,7.58256716 8.2215102,6.06089552 C8.2215102,4.53922388 7.43906122,3.79128358 5.84808163,3.79128358 L3.94412245,3.79128358 L3.94412245,8.33050746 Z M8.82138776,13.6692537 C8.82138776,11.9928358 8.01285714,11.1675224 6.05673469,11.1675224 L3.94412245,11.1675224 L3.94412245,16.145194 L6.05673469,16.145194 C8.01285714,16.145194 8.82138776,15.3198806 8.82138776,13.6692537 Z M14.8520408,19.3432836 L19.7032245,0.644776119 L24.5804898,0.644776119 L29.4577551,19.3432836 L25.1803673,19.3432836 L24.3196735,15.4488358 L19.8857959,15.4488358 L19.025102,19.3432836 L14.8520408,19.3432836 Z M22.1288163,5.57086567 L20.5639184,12.4312836 L23.641551,12.4312836 L22.1288163,5.57086567 Z M41.4350204,12.8439403 L45.3211837,12.8439403 C44.8256327,17.28 42.7651837,19.6785672 38.4877959,19.6785672 C33.5583673,19.6785672 31.1849388,16.0678209 31.1849388,9.98113433 C31.1849388,3.92023881 33.6887755,0.309492537 38.6182041,0.309492537 C42.7651837,0.309492537 44.8256327,3.01755224 45.1646939,7.11832836 L41.3306939,7.11832836 C41.1220408,4.53922388 40.3395918,3.35283582 38.4617143,3.35283582 C36.3751837,3.35283582 35.3319184,5.31295522 35.3319184,9.98113433 C35.3319184,14.7524776 36.2969388,16.6352239 38.4617143,16.6352239 C40.1570204,16.6352239 41.252449,15.6293731 41.4350204,12.8439403 Z M51.9256327,0.644776119 L51.9256327,7.68573134 L57.0637143,0.644776119 L61.628,0.644776119 L56.1769388,7.76310448 L61.9409796,19.3432836 L57.4810204,19.3432836 L53.4383673,11.3222687 L51.9256327,13.3081791 L51.9256327,19.3432836 L48.0133878,19.3432836 L48.0133878,0.644776119 L51.9256327,0.644776119 Z M63.9811429,5.72561194 C63.9811429,2.01170149 67.3456735,0.309492537 70.5537143,0.309492537 C73.7356735,0.309492537 76.682898,2.06328358 77.1002041,6.21564179 L73.344449,6.21564179 C73.1097143,4.35868657 72.0403673,3.27546269 70.3450612,3.27546269 C68.8844898,3.27546269 67.8933878,4.10077612 67.8933878,5.36453731 C67.8933878,6.57671642 68.5715102,7.4278209 70.2668163,7.84047761 L71.9099592,8.25313433 C74.4137959,8.8721194 77.4914286,10.0842985 77.4914286,13.8755821 C77.4914286,17.9247761 74.2051429,19.6785672 71.0492653,19.6785672 C66.7979592,19.6785672 64.0854694,17.1768358 63.6681633,13.1534328 L67.45,13.1534328 C67.736898,15.2940896 68.8844898,16.712597 70.9449388,16.712597 C72.4315918,16.712597 73.553102,15.9130746 73.553102,14.4945672 C73.553102,13.1276418 72.6402449,12.1991642 70.788449,11.7349254 L68.8584082,11.2191045 C66.3284898,10.6001194 63.9811429,8.76895522 63.9811429,5.72561194 Z M84.6957551,19.3432836 L84.6957551,3.9718209 L79.3490204,3.9718209 L79.3490204,0.644776119 L93.9547347,0.644776119 L93.9547347,3.9718209 L88.608,3.9718209 L88.608,19.3432836 L84.6957551,19.3432836 Z M95.4732653,19.3432836 L100.324449,0.644776119 L105.201714,0.644776119 L110.07898,19.3432836 L105.801592,19.3432836 L104.940898,15.4488358 L100.50702,15.4488358 L99.6463265,19.3432836 L95.4732653,19.3432836 Z M102.750041,5.57086567 L101.185143,12.4312836 L104.262776,12.4312836 L102.750041,5.57086567 Z M126.020653,6.88620896 L122.160571,6.88620896 C121.978,4.48764179 120.908653,3.35283582 119.056857,3.35283582 C116.866,3.35283582 115.718408,5.31295522 115.718408,9.98113433 C115.718408,14.7524776 116.866,16.6352239 119.056857,16.6352239 C120.85649,16.6352239 122.160571,15.1909254 122.160571,12.8181493 L122.160571,12.3797015 L118.717796,12.3797015 L118.717796,9.33635821 L126.098898,9.33635821 L126.098898,19.3432836 L123.09951,19.3432836 L122.969102,17.0220896 C122.056245,18.8790448 120.7,19.6785672 118.691714,19.6785672 C114.101347,19.6785672 111.571429,16.0678209 111.571429,9.98113433 C111.571429,3.92023881 114.179592,0.309492537 119.187265,0.309492537 C123.282082,0.309492537 125.681592,2.88859701 126.020653,6.88620896 Z M129.39098,19.3432836 L129.39098,0.644776119 L140.840816,0.644776119 L140.840816,3.9718209 L133.303224,3.9718209 L133.303224,8.1241791 L140.319184,8.1241791 L140.319184,11.4512239 L133.303224,11.4512239 L133.303224,16.0162388 L140.840816,16.0162388 L140.840816,19.3432836 L129.39098,19.3432836 Z" id="BACKSTAGE"></path>
                <path d="M89.4455102,41.1424478 L93.3316735,41.1424478 C92.8361224,45.5785075 90.7756735,47.9770746 86.4982857,47.9770746 C81.5688571,47.9770746 79.1954286,44.3663284 79.1954286,38.2796418 C79.1954286,32.2187463 81.6992653,28.608 86.6286939,28.608 C90.7756735,28.608 92.8361224,31.3160597 93.1751837,35.4168358 L89.3411837,35.4168358 C89.1325306,32.8377313 88.3500816,31.6513433 86.4722041,31.6513433 C84.3856735,31.6513433 83.3424082,33.6114627 83.3424082,38.2796418 C83.3424082,43.0509851 84.3074286,44.9337313 86.4722041,44.9337313 C88.1675102,44.9337313 89.2629388,43.9278806 89.4455102,41.1424478 Z M99.1536735,38.2796418 C99.1536735,42.1998806 100.014367,44.9337313 102.413878,44.9337313 C104.839469,44.9337313 105.674082,42.1998806 105.674082,38.2796418 C105.674082,34.3336119 104.839469,31.6513433 102.413878,31.6513433 C100.014367,31.6513433 99.1536735,34.3336119 99.1536735,38.2796418 Z M95.0066939,38.2796418 C95.0066939,32.4766567 97.2757959,28.608 102.413878,28.608 C107.525878,28.608 109.821061,32.4766567 109.821061,38.2796418 C109.821061,44.0826269 107.525878,47.9770746 102.413878,47.9770746 C97.2757959,47.9770746 95.0066939,44.0826269 95.0066939,38.2796418 Z M115.277918,38.2796418 C115.277918,42.1998806 116.138612,44.9337313 118.538122,44.9337313 C120.963714,44.9337313 121.798327,42.1998806 121.798327,38.2796418 C121.798327,34.3336119 120.963714,31.6513433 118.538122,31.6513433 C116.138612,31.6513433 115.277918,34.3336119 115.277918,38.2796418 Z M111.130939,38.2796418 C111.130939,32.4766567 113.400041,28.608 118.538122,28.608 C123.650122,28.608 125.945306,32.4766567 125.945306,38.2796418 C125.945306,44.0826269 123.650122,47.9770746 118.538122,47.9770746 C113.400041,47.9770746 111.130939,44.0826269 111.130939,38.2796418 Z M132.888816,28.9432836 L132.888816,44.3147463 L141.704408,44.3147463 L141.704408,47.641791 L128.976571,47.641791 L128.976571,28.9432836 L132.888816,28.9432836 Z" id="COOL"></path>
            </g>
        </g>
    </g>
</svg>